<svg viewBox="0 0 857 544" xmlns="http://www.w3.org/2000/svg" xml:space="preserve" fill-rule="evenodd" clip-rule="evenodd" stroke-linejoin="round" stroke-miterlimit="2"><path fill="none" d="M0 0h857v544H0z"/><path d="M360 111a350 350 0 0 0 4 356c55 91 204 101 335 23 118-71 180-190 150-279v-2C815 58 596-31 617 56c40 163 3 133-56 83-61-50-146-120-201-28Zm391 83c18-13 16-48-5-78-21-31-52-45-71-33-18 12-15 47 5 78 21 30 53 45 71 33Z" fill="#ffbf16" fill-opacity=".1"/><path d="M271 79V67c-1-11 1-19 4-26 4-7 10-12 16-15 7-4 14-6 21-6h16l17 1-7 34a157 157 0 0 0-13-1l-5 1-4 4-1 6 1 11 21-1 1 28-21 2 5 106-44 2-5-106-18 1-2-29h18ZM402 98c4-9 9-16 15-20a35 35 0 0 1 30-8l1 44a86 86 0 0 0-14-1c-6 0-12 2-17 4s-9 6-11 11c-3 5-4 12-4 21l-1 57h-43V71h44v27Z" fill="#92d1f9" fill-rule="nonzero"/><path d="M498 153c-1 5-1 10 1 14 1 5 3 8 6 11s7 4 12 5c4 0 7 0 10-2 4-1 6-3 8-7l43 5c-2 8-7 15-13 21-6 7-13 11-22 14a68 68 0 0 1-61-9c-9-6-16-16-21-27s-7-25-5-39c1-15 6-27 13-37a64 64 0 0 1 59-27c11 1 21 4 29 9a64 64 0 0 1 26 47c0 10-1 20-5 30l-80-8Zm45-18-43-4 4-11c2-4 5-7 9-9 3-2 8-2 12-2 4 1 8 2 10 4 3 2 5 4 6 7l2 9v6ZM630 171l-1 15a21 21 0 0 0 17 17h11c3-1 6-4 8-7l42 9c-3 8-7 14-14 20s-14 10-24 12a68 68 0 0 1-59-15c-9-7-15-17-19-29s-5-25-2-40c3-14 9-26 17-35a64 64 0 0 1 61-22c11 3 21 7 28 13s13 13 16 22c4 8 5 17 5 27s-2 19-7 29l-79-16Zm46-13-42-8 5-11 10-8 12-1 10 5 5 8 1 9-1 6Z" fill="#92d1f9"/><path d="m221 254-8-66 44-6 25 188-36 4-7-19c-3 8-7 15-12 19-6 6-13 9-21 10-11 2-22 0-33-5-10-4-18-12-25-22s-12-22-14-36-1-27 3-38c4-12 10-21 18-28s18-11 29-13c10-1 19 0 27 4l10 8Zm7 48 2 12c0 5 0 9-2 14l-8 10c-4 3-7 5-12 6-5 0-10-1-14-3s-8-5-11-10-4-10-5-16-1-11 1-16c1-5 4-10 7-13 4-3 9-5 14-6 5 0 9 0 13 2 4 1 7 4 10 7 3 4 4 8 5 13Z" fill="#768aff"/><path d="m596 425-20 3c-41 7-83 12-125 20-28 5-55 10-83 17l-29 7-19 7c-2 0-10 3-13 6-2 2-3 5-1 8 1 2 4 5 8 6 9 2 23 1 27 1l98 6 36 3 55 8-54-10-37-6-97-9-17-1-6-1 4-1 19-5 29-7 83-13 125-14 73-8 18-3c6-2 10-6 11-10 1-2 2-13-10-18l-22-6a768 768 0 0 0-76-13 1163 1163 0 0 0-319 3 23 23 0 0 0 8 44 1165 1165 0 0 1 334-14Z" fill="#b38fed"/><path d="M483 515 100 278a29 29 0 0 1-12-13 35 35 0 0 0 27-40 28 28 0 0 1 16 6l365 265a11 11 0 0 1-13 19ZM97 205a31 31 0 1 1-34 51 31 31 0 0 1 34-51Z" fill="#eed89e"/><path d="M26 157c-25 63 22 91 37 99 57-11-5-43 43-42-16-40-74-25-80-57Z" fill="#ff72b7" fill-rule="nonzero"/><path d="M336 256c4-9 8-16 14-22a35 35 0 0 1 30-9l3 44a86 86 0 0 0-14 0c-6 0-12 2-16 4-5 3-9 7-11 13-2 5-3 12-3 20l4 58-44 3-8-136 43-2 2 27Z" fill="#768aff" fill-rule="nonzero"/><path d="M481 283v-9c1-7 0-12-3-16-2-4-7-6-15-7-5 0-9 0-12 2l-7 5-2 7-47-2c0-11 3-19 9-26 5-7 13-11 23-14a119 119 0 0 1 71 5c9 4 16 11 21 19s7 18 6 31l-5 84-38-2-2-18c-3 6-8 10-13 14-7 5-17 7-27 6-12 0-23-3-31-7-8-5-13-11-17-18s-6-15-5-23c0-8 3-15 7-20 5-6 12-10 20-13 9-3 20-4 33-3a147 147 0 0 1 34 5Zm-2 25-2 10c-2 4-5 7-8 9-4 2-9 3-15 3-8 0-13-2-16-5-3-2-5-5-5-9 1-4 3-8 7-9 3-2 9-3 15-3a126 126 0 0 1 24 4Z" fill="#768aff"/><path d="m631 315-30 63-43-8-20-140 45 8 7 87 33-72 40 8 6 78 36-79 43 8-68 125-42-8-7-70Z" fill="#768aff" fill-rule="nonzero"/><path d="M186 384h20c8-1 15-4 21-10 5-4 9-11 12-19l7 19 36-4-25-188-44 6 8 66-10-8c-8-4-17-5-27-4l16 38c5 0 9 0 13 2 4 1 7 4 10 7 3 4 4 8 5 13l2 12c0 5 0 9-2 14l-8 10c-4 3-7 5-12 6l-8-1c-3 15-8 29-14 41Z" fill="#768aff"/><path d="m589 394-9 30 16 1-20 3c-41 7-83 12-125 20-28 5-55 10-83 17l-29 7-19 7c-2 0-10 3-13 6-2 2-3 5-1 8 1 2 4 5 8 6 9 2 23 1 27 1l98 6 36 3 55 8-54-10-37-6-97-9-17-1-6-1 4-1 19-5 29-7 83-13 125-14 73-8 18-3c6-2 10-6 11-10 1-2 2-13-10-18l-22-6a768 768 0 0 0-60-11Z" fill="#b38fed"/><path d="M110 59a196 196 0 0 0-42 84 15 15 0 0 1-31 1 262 262 0 0 1 3-119 39 39 0 0 1 70 34Z" fill="#ff72b7"/><path d="M164 124c-11 3-23 7-33 15-12 8-22 16-30 26a11 11 0 0 1-20-9 162 162 0 0 1 57-82 28 28 0 0 1 26 50Z" fill="#9ab3ff"/><path d="m175 196-32-2h-20a10 10 0 0 1-9-17l20-14 31-16a25 25 0 0 1 10 49Z" fill="#768aff"/></svg>