<?xml version="1.0" encoding="UTF-8" standalone="no"?>
<!DOCTYPE svg PUBLIC "-//W3C//DTD SVG 1.1//EN"
 "http://www.w3.org/Graphics/SVG/1.1/DTD/svg11.dtd">
<!-- Generated by graphviz version 2.43.0 (0)
 -->
<!-- Title: Example: JSON Model Pages: 1 -->
<svg width="390pt" height="132pt"
 viewBox="0.00 0.00 390.00 132.00" xmlns="http://www.w3.org/2000/svg" xmlns:xlink="http://www.w3.org/1999/xlink">
<g id="graph0" class="graph" transform="scale(1 1) rotate(0) translate(4 128)">
<title>Example: JSON Model</title>
<polygon fill="white" stroke="transparent" points="-4,4 -4,-128 386,-128 386,4 -4,4"/>
<!-- model -->
<g id="node1" class="node">
<title>model</title>
<polygon fill="none" stroke="black" points="75,-87.5 75,-123.5 273,-123.5 273,-87.5 75,-87.5"/>
<text text-anchor="middle" x="174" y="-101.8" font-family="monospace" font-size="14.00">My Cool Model (Folder)</text>
</g>
<!-- root_part -->
<g id="node2" class="node">
<title>root_part</title>
<polygon fill="none" stroke="black" points="0,-0.5 0,-36.5 140,-36.5 140,-0.5 0,-0.5"/>
<text text-anchor="middle" x="70" y="-14.8" font-family="monospace" font-size="14.00">RootPart (Part)</text>
</g>
<!-- model&#45;&gt;root_part -->
<g id="edge1" class="edge">
<title>model&#45;&gt;root_part</title>
<path fill="none" stroke="black" d="M152.95,-87.3C137.45,-74.63 116.17,-57.23 99.04,-43.24"/>
<polygon fill="black" stroke="black" points="100.97,-40.29 91.01,-36.68 96.54,-45.71 100.97,-40.29"/>
</g>
<!-- send_money -->
<g id="node3" class="node">
<title>send_money</title>
<polygon fill="none" stroke="black" points="176,-0.5 176,-36.5 382,-36.5 382,-0.5 176,-0.5"/>
<text text-anchor="middle" x="279" y="-14.8" font-family="monospace" font-size="14.00">SendMoney (RemoteEvent)</text>
</g>
<!-- model&#45;&gt;send_money -->
<g id="edge2" class="edge">
<title>model&#45;&gt;send_money</title>
<path fill="none" stroke="black" d="M195.25,-87.3C210.9,-74.63 232.39,-57.23 249.68,-43.24"/>
<polygon fill="black" stroke="black" points="252.21,-45.69 257.78,-36.68 247.81,-40.25 252.21,-45.69"/>
</g>
</g>
</svg>
