<?xml version="1.0" encoding="UTF-8" standalone="no"?>
<!DOCTYPE svg PUBLIC "-//W3C//DTD SVG 1.1//EN"
 "http://www.w3.org/Graphics/SVG/1.1/DTD/svg11.dtd">
<!-- Generated by graphviz version 2.40.1 (20161225.0304)
 -->
<!-- Title: Example: Sync Files Pages: 1 -->
<svg width="258pt" height="132pt"
 viewBox="0.00 0.00 258.00 132.00" xmlns="http://www.w3.org/2000/svg" xmlns:xlink="http://www.w3.org/1999/xlink">
<g id="graph0" class="graph" transform="scale(1 1) rotate(0) translate(4 128)">
<title>Example: Sync Files</title>
<polygon fill="#ffffff" stroke="transparent" points="-4,4 -4,-128 254,-128 254,4 -4,4"/>
<!-- my_model -->
<g id="node1" class="node">
<title>my_model</title>
<polygon fill="none" stroke="#000000" points="104,-87.5 104,-123.5 178,-123.5 178,-87.5 104,-87.5"/>
<text text-anchor="middle" x="141" y="-101.8" font-family="monospace" font-size="14.00" fill="#000000">MyModel</text>
</g>
<!-- init_server -->
<g id="node2" class="node">
<title>init_server</title>
<polygon fill="none" stroke="#000000" points="0,-.5 0,-36.5 140,-36.5 140,-.5 0,-.5"/>
<text text-anchor="middle" x="70" y="-14.8" font-family="monospace" font-size="14.00" fill="#000000">init.server.lua</text>
</g>
<!-- my_model&#45;&gt;init_server -->
<g id="edge1" class="edge">
<title>my_model&#45;&gt;init_server</title>
<path fill="none" stroke="#000000" d="M126.2888,-87.4735C116.1026,-74.9919 102.3906,-58.1899 91.0506,-44.2944"/>
<polygon fill="#000000" stroke="#000000" points="93.7267,-42.0379 84.6924,-36.5034 88.3035,-46.4638 93.7267,-42.0379"/>
</g>
<!-- foo -->
<g id="node3" class="node">
<title>foo</title>
<polygon fill="none" stroke="#000000" points="176,-.5 176,-36.5 250,-36.5 250,-.5 176,-.5"/>
<text text-anchor="middle" x="213" y="-14.8" font-family="monospace" font-size="14.00" fill="#000000">foo.lua</text>
</g>
<!-- my_model&#45;&gt;foo -->
<g id="edge2" class="edge">
<title>my_model&#45;&gt;foo</title>
<path fill="none" stroke="#000000" d="M155.9184,-87.4735C166.2481,-74.9919 180.1532,-58.1899 191.6529,-44.2944"/>
<polygon fill="#000000" stroke="#000000" points="194.4213,-46.4388 198.1007,-36.5034 189.0286,-41.9758 194.4213,-46.4388"/>
</g>
</g>
</svg>
