<?xml version="1.0" encoding="UTF-8" standalone="no"?>
<!DOCTYPE svg PUBLIC "-//W3C//DTD SVG 1.1//EN"
 "http://www.w3.org/Graphics/SVG/1.1/DTD/svg11.dtd">
<!-- Generated by graphviz version 2.40.1 (20161225.0304)
 -->
<!-- Title: Example: JSON Model Pages: 1 -->
<svg width="390pt" height="132pt"
 viewBox="0.00 0.00 390.00 132.00" xmlns="http://www.w3.org/2000/svg" xmlns:xlink="http://www.w3.org/1999/xlink">
<g id="graph0" class="graph" transform="scale(1 1) rotate(0) translate(4 128)">
<title>Example: JSON Model</title>
<polygon fill="#ffffff" stroke="transparent" points="-4,4 -4,-128 386,-128 386,4 -4,4"/>
<!-- model -->
<g id="node1" class="node">
<title>model</title>
<polygon fill="none" stroke="#000000" points="75,-87.5 75,-123.5 273,-123.5 273,-87.5 75,-87.5"/>
<text text-anchor="middle" x="174" y="-101.8" font-family="monospace" font-size="14.00" fill="#000000">My Cool Model (Folder)</text>
</g>
<!-- root_part -->
<g id="node2" class="node">
<title>root_part</title>
<polygon fill="none" stroke="#000000" points="0,-.5 0,-36.5 140,-36.5 140,-.5 0,-.5"/>
<text text-anchor="middle" x="70" y="-14.8" font-family="monospace" font-size="14.00" fill="#000000">RootPart (Part)</text>
</g>
<!-- model&#45;&gt;root_part -->
<g id="edge1" class="edge">
<title>model&#45;&gt;root_part</title>
<path fill="none" stroke="#000000" d="M152.4511,-87.4735C137.1122,-74.6419 116.3151,-57.2443 99.4459,-43.1326"/>
<polygon fill="#000000" stroke="#000000" points="101.4371,-40.2352 91.5213,-36.5034 96.9457,-45.6043 101.4371,-40.2352"/>
</g>
<!-- send_money -->
<g id="node3" class="node">
<title>send_money</title>
<polygon fill="none" stroke="#000000" points="176,-.5 176,-36.5 382,-36.5 382,-.5 176,-.5"/>
<text text-anchor="middle" x="279" y="-14.8" font-family="monospace" font-size="14.00" fill="#000000">SendMoney (RemoteEvent)</text>
</g>
<!-- model&#45;&gt;send_money -->
<g id="edge2" class="edge">
<title>model&#45;&gt;send_money</title>
<path fill="none" stroke="#000000" d="M195.7561,-87.4735C211.2425,-74.6419 232.2396,-57.2443 249.271,-43.1326"/>
<polygon fill="#000000" stroke="#000000" points="251.8046,-45.5787 257.2718,-36.5034 247.3385,-40.1885 251.8046,-45.5787"/>
</g>
</g>
</svg>
